<mxfile host="app.diagrams.net" agent="Mozilla/5.0 (Windows NT 10.0; Win64; x64; rv:134.0) Gecko/20100101 Firefox/134.0" version="26.0.10">
  <diagram name="Page-1" id="kH82kSOfV5iwdPesmQLd">
    <mxGraphModel dx="1985" dy="2183" grid="1" gridSize="10" guides="1" tooltips="1" connect="1" arrows="1" fold="1" page="1" pageScale="1" pageWidth="850" pageHeight="1100" math="0" shadow="0">
      <root>
        <mxCell id="0" />
        <mxCell id="1" parent="0" />
        <mxCell id="nYdyaAWLwa4pEy-mxrw9-2" value="&lt;div align=&quot;left&quot;&gt;&lt;ul&gt;&lt;li&gt;&lt;font style=&quot;font-size: 20px;&quot;&gt;Consent&lt;/font&gt;&lt;/li&gt;&lt;li&gt;&lt;font style=&quot;font-size: 20px;&quot;&gt;Existence and representation&lt;/font&gt;&lt;/li&gt;&lt;li&gt;&lt;font style=&quot;font-size: 20px;&quot;&gt;Ownership and control&lt;/font&gt;&lt;/li&gt;&lt;/ul&gt;&lt;/div&gt;" style="rounded=1;whiteSpace=wrap;html=1;align=left;fillColor=#ffe6cc;strokeColor=#d79b00;" vertex="1" parent="1">
          <mxGeometry x="350" y="10" width="370" height="190" as="geometry" />
        </mxCell>
        <mxCell id="nYdyaAWLwa4pEy-mxrw9-3" value="&lt;div align=&quot;left&quot;&gt;&lt;ul&gt;&lt;li&gt;&lt;font style=&quot;font-size: 20px;&quot;&gt;Persistence&lt;/font&gt;&lt;/li&gt;&lt;li&gt;&lt;font style=&quot;font-size: 20px;&quot;&gt;Privacy and minimal disclosure&lt;/font&gt;&lt;/li&gt;&lt;li&gt;&lt;font style=&quot;font-size: 20px;&quot;&gt;Security and protection&lt;/font&gt;&lt;/li&gt;&lt;/ul&gt;&lt;/div&gt;" style="rounded=1;whiteSpace=wrap;html=1;align=left;fillColor=#d5e8d4;strokeColor=#82b366;" vertex="1" parent="1">
          <mxGeometry x="350" y="280" width="370" height="190" as="geometry" />
        </mxCell>
        <mxCell id="nYdyaAWLwa4pEy-mxrw9-6" value="&lt;div align=&quot;left&quot;&gt;&lt;ul&gt;&lt;li&gt;&lt;font style=&quot;font-size: 20px;&quot;&gt;Decentralization and Autonomy&lt;/font&gt;&lt;/li&gt;&lt;li&gt;&lt;font style=&quot;font-size: 20px;&quot;&gt;Usability and consistency&lt;/font&gt;&lt;/li&gt;&lt;li&gt;&lt;font style=&quot;font-size: 20px;&quot;&gt;Verifiability and Authenticity&lt;/font&gt;&lt;/li&gt;&lt;/ul&gt;&lt;/div&gt;" style="rounded=1;whiteSpace=wrap;html=1;align=left;fillColor=#fff2cc;strokeColor=#d6b656;" vertex="1" parent="1">
          <mxGeometry x="800" y="130" width="370" height="190" as="geometry" />
        </mxCell>
        <mxCell id="nYdyaAWLwa4pEy-mxrw9-7" value="&lt;b&gt;&lt;font style=&quot;font-size: 25px;&quot;&gt;Controllability&lt;/font&gt;&lt;/b&gt;" style="rounded=0;whiteSpace=wrap;html=1;fillColor=#f0a30a;fontColor=#000000;strokeColor=#BD7000;" vertex="1" parent="1">
          <mxGeometry x="350" y="-10" width="370" height="60" as="geometry" />
        </mxCell>
        <mxCell id="nYdyaAWLwa4pEy-mxrw9-8" value="&lt;div&gt;&lt;b&gt;&lt;font style=&quot;font-size: 25px;&quot;&gt;Usability and agency&lt;/font&gt;&lt;/b&gt;&lt;/div&gt;" style="rounded=0;whiteSpace=wrap;html=1;fillColor=#e3c800;fontColor=#000000;strokeColor=#B09500;" vertex="1" parent="1">
          <mxGeometry x="800" y="110" width="370" height="60" as="geometry" />
        </mxCell>
        <mxCell id="nYdyaAWLwa4pEy-mxrw9-11" value="&lt;span style=&quot;color: rgb(0, 0, 0);&quot;&gt;&lt;b&gt;&lt;font style=&quot;font-size: 25px;&quot;&gt;Security&lt;font&gt;&lt;br&gt;&lt;/font&gt;&lt;/font&gt;&lt;/b&gt;&lt;/span&gt;" style="rounded=0;whiteSpace=wrap;html=1;fillColor=#66CC00;strokeColor=#2D7600;fontColor=#ffffff;" vertex="1" parent="1">
          <mxGeometry x="350" y="260" width="370" height="60" as="geometry" />
        </mxCell>
        <mxCell id="nYdyaAWLwa4pEy-mxrw9-12" value="&lt;div&gt;&lt;ul&gt;&lt;li&gt;&lt;font style=&quot;font-size: 20px;&quot;&gt;Access and availability&lt;/font&gt;&lt;/li&gt;&lt;/ul&gt;&lt;/div&gt;" style="rounded=1;whiteSpace=wrap;html=1;fillColor=#dae8fc;strokeColor=#6c8ebf;" vertex="1" parent="1">
          <mxGeometry x="1230" y="-10" width="370" height="190" as="geometry" />
        </mxCell>
        <mxCell id="nYdyaAWLwa4pEy-mxrw9-13" value="&lt;div align=&quot;left&quot;&gt;&lt;br&gt;&lt;ul&gt;&lt;li&gt;&lt;font style=&quot;font-size: 20px;&quot;&gt;Cost&lt;/font&gt;&lt;/li&gt;&lt;li&gt;&lt;font style=&quot;font-size: 20px;&quot;&gt;Interoperability&lt;/font&gt;&lt;/li&gt;&lt;li&gt;&lt;font style=&quot;font-size: 20px;&quot;&gt;Portability&lt;/font&gt;&lt;/li&gt;&lt;li&gt;&lt;font style=&quot;font-size: 20px;&quot;&gt;Standard&lt;/font&gt;&lt;/li&gt;&lt;li&gt;&lt;font style=&quot;font-size: 20px;&quot;&gt;Transparency&lt;/font&gt;&lt;/li&gt;&lt;/ul&gt;&lt;/div&gt;" style="rounded=1;whiteSpace=wrap;html=1;align=left;fillColor=#e1d5e7;strokeColor=#9673a6;" vertex="1" parent="1">
          <mxGeometry x="1230" y="270" width="370" height="190" as="geometry" />
        </mxCell>
        <mxCell id="nYdyaAWLwa4pEy-mxrw9-14" value="&lt;b&gt;&lt;font style=&quot;font-size: 25px;&quot;&gt;Sustainability and adoption&lt;br&gt;&lt;/font&gt;&lt;/b&gt;" style="rounded=0;whiteSpace=wrap;html=1;fillColor=#6a00ff;fontColor=#ffffff;strokeColor=#3700CC;" vertex="1" parent="1">
          <mxGeometry x="1230" y="240" width="370" height="60" as="geometry" />
        </mxCell>
        <mxCell id="nYdyaAWLwa4pEy-mxrw9-15" value="&lt;b&gt;&lt;font style=&quot;font-size: 25px; color: rgb(0, 0, 0);&quot;&gt;Mobility&lt;font&gt;&lt;br&gt;&lt;/font&gt;&lt;/font&gt;&lt;/b&gt;" style="rounded=0;whiteSpace=wrap;html=1;fillColor=#1ba1e2;fontColor=#ffffff;strokeColor=#006EAF;" vertex="1" parent="1">
          <mxGeometry x="1230" y="-20" width="370" height="60" as="geometry" />
        </mxCell>
      </root>
    </mxGraphModel>
  </diagram>
</mxfile>
